<svg width="149" height="30" viewBox="0 0 149 30" fill="none" xmlns="http://www.w3.org/2000/svg">
<path d="M10.7273 30H0.869318V0.90909H10.9261C13.8144 0.90909 16.2955 1.49148 18.3693 2.65625C20.4527 3.81155 22.053 5.47348 23.1705 7.64205C24.2879 9.81061 24.8466 12.4053 24.8466 15.4261C24.8466 18.4564 24.2831 21.0606 23.1562 23.2386C22.0388 25.4167 20.4242 27.0881 18.3125 28.2528C16.2102 29.4176 13.6818 30 10.7273 30ZM6.1392 25.4403H10.4716C12.4981 25.4403 14.1884 25.071 15.5426 24.3324C16.8968 23.5843 17.9148 22.4716 18.5966 20.9943C19.2784 19.5076 19.6193 17.6515 19.6193 15.4261C19.6193 13.2008 19.2784 11.3542 18.5966 9.88636C17.9148 8.40909 16.9063 7.30587 15.571 6.5767C14.2453 5.83807 12.5975 5.46875 10.6278 5.46875H6.1392V25.4403ZM28.6537 30V0.90909H47.5741V5.3267H33.9236V13.2244H46.594V17.642H33.9236V25.5824H47.6878V30H28.6537ZM56.154 0.90909L62.5602 11.5625H62.7875L69.2222 0.90909H75.2307L66.2676 15.4545L75.3727 30H69.2648L62.7875 19.4176H62.5602L56.083 30H50.0034L59.1937 15.4545L50.117 0.90909H56.154ZM76.8893 5.3267V0.90909H100.1V5.3267H91.1081V30H85.8808V5.3267H76.8893ZM103.374 30V0.90909H122.294V5.3267H108.644V13.2244H121.314V17.642H108.644V25.5824H122.408V30H103.374ZM126.471 30V0.90909H137.38C139.615 0.90909 141.49 1.29735 143.005 2.07386C144.53 2.85038 145.68 3.93939 146.457 5.34091C147.243 6.73295 147.636 8.35701 147.636 10.2131C147.636 12.0786 147.238 13.6979 146.442 15.071C145.656 16.4347 144.496 17.4905 142.962 18.2386C141.428 18.9773 139.544 19.3466 137.309 19.3466H129.539V14.9716H136.599C137.906 14.9716 138.976 14.7917 139.809 14.4318C140.642 14.0625 141.258 13.5275 141.656 12.8267C142.063 12.1165 142.266 11.2453 142.266 10.2131C142.266 9.18087 142.063 8.30019 141.656 7.57102C141.248 6.83239 140.628 6.27367 139.795 5.89489C138.961 5.50663 137.887 5.3125 136.57 5.3125H131.741V30H126.471ZM141.499 16.8182L148.701 30H142.82L135.746 16.8182H141.499Z" fill="black"/>
</svg>
